<?xml version="1.0" encoding="utf-8"?>
<!-- Generator: Adobe Illustrator 27.1.1, SVG Export Plug-In . SVG Version: 6.00 Build 0)  -->
<svg version="1.1" id="Layer_1" xmlns="http://www.w3.org/2000/svg" xmlns:xlink="http://www.w3.org/1999/xlink" x="0px" y="0px"
	 viewBox="0 0 237 48" style="enable-background:new 0 0 237 48;" xml:space="preserve">
<style type="text/css">
	.st0{clip-path:url(#SVGID_00000136396311396694231570000000770566167966210436_);}
	.st1{fill:#FFD2A4;}
</style>
<g>
	<defs>
		<rect id="SVGID_1_" width="237" height="48"/>
	</defs>
	<clipPath id="SVGID_00000067234572950277675710000007049769939220587188_">
		<use xlink:href="#SVGID_1_"  style="overflow:visible;"/>
	</clipPath>
	<g style="clip-path:url(#SVGID_00000067234572950277675710000007049769939220587188_);">
		<path class="st1" d="M236.6,36.7v5.9h-4.9c-5.2-0.2-8.1-3-8.1-8.3V20.8h-3.4v-5.1h3.4V9.9h7.3v5.7h5.5v5.1h-5.5v12.8
			c0,1.7,0.3,3.1,3,3.1L236.6,36.7z"/>
		<path class="st1" d="M191.2,29.1v-0.4c-0.1-1.7,0.2-3.4,0.8-5.1c0.6-1.6,1.5-3.1,2.7-4.4c1.2-1.3,2.6-2.3,4.1-3
			c1.6-0.7,3.3-1.1,5-1.2c0.3,0,0.7,0,1.1,0c6.9,0,12.9,4,12.9,13.5v2h-19.1c0.2,4.4,2.6,6.9,6.6,6.9c3.4,0,5-1.5,5.5-3.7h6.9
			c-0.8,5.7-5.4,8.9-12.6,8.9C197,42.6,191.2,37.6,191.2,29.1z M210.6,26c-0.3-4-2.3-5.9-5.8-5.9s-5.5,2.2-6,5.9H210.6z"/>
		<path class="st1" d="M161.6,29.1v-0.4c-0.1-1.7,0.2-3.4,0.8-5.1c0.6-1.6,1.5-3.1,2.7-4.4c1.2-1.3,2.6-2.3,4.1-3
			c1.6-0.7,3.3-1.1,5-1.2c0.3,0,0.7,0,1.1,0c6.9,0,12.9,4,12.9,13.5v2h-19c0.2,4.4,2.6,6.9,6.6,6.9c3.4,0,5-1.5,5.5-3.7h6.9
			c-0.9,5.7-5.4,8.9-12.6,8.9C167.4,42.6,161.6,37.6,161.6,29.1z M180.9,26c-0.3-4-2.3-5.9-5.8-5.9s-5.4,2.2-6,5.9L180.9,26z"/>
		<path class="st1" d="M120,15.6h7.7l4.7,17.8l5.1-17.8h6l4.6,17.8l4.9-17.8h7L151.8,42h-7.2l-4.5-16.6L135.3,42H128L120,15.6z"/>
		<path class="st1" d="M95.6,33.7h6.9c0.3,2.4,1.5,3.8,4.7,3.8c2.8,0,4.1-1.1,4.1-2.9s-1.5-2.6-5.3-3.1c-7-1.1-9.8-3.1-9.8-8.2
			c0-5.5,5-8.2,10.5-8.2c5.9,0,10.3,2.1,10.9,8.2h-6.8c0-0.5-0.2-0.9-0.4-1.3c-0.2-0.4-0.5-0.8-0.9-1.1c-0.4-0.3-0.8-0.5-1.2-0.7
			c-0.5-0.1-0.9-0.2-1.4-0.1h-0.2c-2.4,0-3.8,1.1-3.8,2.7c0,1.6,1.3,2.3,5.1,2.9c6.6,1,10.2,2.7,10.2,8.3s-4.2,8.7-11.1,8.7
			C100.2,42.6,95.8,39.4,95.6,33.7z"/>
		<path class="st1" d="M66.5,15.6h7.3v4.2c0.8-1.5,2.1-2.8,3.6-3.7c1.5-0.9,3.2-1.2,5-1.1c5.1,0,8.9,3.1,8.9,10.3v16.8H84V26.3
			c0-3.6-1.4-5.3-4.6-5.3c-0.7-0.1-1.4,0-2,0.2c-0.7,0.2-1.3,0.5-1.8,1c-0.5,0.4-1,1-1.3,1.6c-0.3,0.6-0.5,1.3-0.6,2
			c0,0.3,0,0.6,0,1V42h-7.2V15.6z"/>
		<path class="st1" d="M52.5,9c0-0.7,0.2-1.4,0.5-2.1c0.4-0.6,0.9-1.1,1.6-1.4c0.7-0.3,1.4-0.4,2.1-0.3c0.7,0.1,1.4,0.4,1.9,0.9
			c0.5,0.5,0.9,1.1,1.1,1.8c0.2,0.7,0.1,1.4-0.1,2.1c-0.3,0.7-0.7,1.3-1.3,1.7c-0.6,0.4-1.3,0.7-2,0.7h-0.1c-0.4,0-0.9,0-1.3-0.2
			c-0.4-0.1-0.8-0.4-1.2-0.7c-0.3-0.3-0.6-0.7-0.8-1.1c-0.2-0.4-0.3-0.8-0.3-1.3C52.5,9.2,52.5,9.1,52.5,9z M52.5,15.6h7.3V42h-7.3
			L52.5,15.6z"/>
		<path class="st1" d="M24.8,5.9H48v6.4H33v9.6h11.9V28H33v14h-8.2V5.9z"/>
		<path class="st1" d="M10.8,17.7c0,2.3,0,5-3.1,6.1c3.2,1.1,3.1,3.4,3.1,5.9v9c0,1.7,0.7,2.7,1.9,3c0.3,0.1,0.6,0.1,0.8,0.1h3v6h-5
			c-5.3,0-8.2-3-8.2-8.6V28.6c0-0.5-0.3-1.1-0.7-1.4c-0.4-0.4-0.9-0.6-1.5-0.6H0v-5.3h1.3c0.6,0,1.1-0.2,1.5-0.6
			c0.4-0.4,0.6-0.9,0.7-1.5V8.4C3.4,3,6.3,0,11.6,0h5v5.9h-3c-0.3,0-0.6,0-0.8,0.1c-1.2,0.3-1.9,1.3-1.9,3L10.8,17.7z"/>
	</g>
</g>
</svg>
